<svg width="38" height="38" viewBox="0 0 38 38" fill="none" xmlns="http://www.w3.org/2000/svg">
<circle cx="19" cy="19" r="18.25" fill="white" stroke="#D9D9D9" stroke-width="0.5"/>
<mask id="mask0_2574_3798" style="mask-type:alpha" maskUnits="userSpaceOnUse" x="1" y="1" width="36" height="36">
<circle cx="19" cy="19" r="18" fill="#D9D9D9"/>
</mask>
<g mask="url(#mask0_2574_3798)">
<path d="M7.7484 4H29.2516V34.3842H7.74207L7.7484 4Z" fill="white"/>
<path d="M-3 4H7.74842V34.3842H-3V4ZM29.2516 4H40V34.3842H29.2579L29.2516 4ZM10.9704 18.6857L10.1285 18.9642L14.0152 22.3825C14.3127 23.2497 13.9139 23.5092 13.6607 23.965L17.8765 23.4332L17.7752 27.6744L18.6551 27.6554L18.4589 23.4396L22.681 23.946C22.4215 23.3953 22.1873 23.1041 22.4278 22.2242L26.3081 18.9959L25.6308 18.7427C25.0738 18.3122 25.8713 16.6791 25.9853 15.6473C25.9853 15.6473 23.7255 16.4259 23.5799 16.0144L22.9975 14.9067L20.9339 17.1728C20.7124 17.2298 20.6174 17.1412 20.5604 16.9513L21.5099 12.2164L20.0034 13.0646C19.8768 13.1216 19.7502 13.071 19.6742 12.9254L18.2183 10.0135L16.7244 13.0393C16.6105 13.1469 16.4965 13.1596 16.4079 13.0836L14.9583 12.2797L15.8256 16.9703C15.7559 17.1602 15.5913 17.2108 15.4014 17.1095L13.4265 14.875C13.1733 15.2865 12.996 15.9575 12.6542 16.1094C12.3124 16.255 11.1666 15.8245 10.4007 15.6663C10.6666 16.6031 11.4768 18.173 10.9704 18.6857V18.6857Z" fill="#D52B1E"/>
</g>
</svg>
