<svg width="40" height="40" viewBox="0 0 40 40" fill="none" xmlns="http://www.w3.org/2000/svg">
<circle cx="20" cy="20" r="19.75" fill="#F2F6FF" stroke="#F7F7F7" stroke-width="0.5"/>
<g clip-path="url(#clip0_1470_1096)">
<path d="M18.2763 21.2503H21.7263L20.0013 16.6503L18.2763 21.2503ZM26.668 11.667H13.3346C12.418 11.667 11.668 12.417 11.668 13.3337V26.667C11.668 27.5837 12.418 28.3337 13.3346 28.3337H26.668C27.5846 28.3337 28.3346 27.5837 28.3346 26.667V13.3337C28.3346 12.417 27.5846 11.667 26.668 11.667ZM23.293 25.417L22.343 22.917H17.643L16.7096 25.417H14.968L19.2263 14.5837H20.7763L25.0346 25.417H23.293Z" fill="#0045FF"/>
</g>
<defs>
<clipPath id="clip0_1470_1096">
<rect width="20" height="20" fill="white" transform="translate(10 10)"/>
</clipPath>
</defs>
</svg>
