
<svg width="121" height="96" viewBox="0 0 121 96" fill="none" xmlns="http://www.w3.org/2000/svg">
<rect x="0.954102" y="-6.10352e-05" width="120" height="96" rx="5" fill="white"/>
<path d="M1 4.99976C1 2.23833 3.23858 -0.000244155 6 -0.000244172L116.987 -0.000244879C119.203 -0.000244893 121 1.79635 121 4.01256L121 15.9998L1 15.9998L1 4.99976Z" fill="#156B8A"/>
<circle cx="9" cy="7.99976" r="2" fill="#26536B"/>
<circle cx="15" cy="7.99976" r="2" fill="#1FA7D9"/>
<circle cx="21" cy="7.99976" r="2" fill="#BFED45"/>
<rect x="84.458" y="32.2773" width="22.5952" height="4.03485" rx="2.01743" fill="#C4E7F6"/>
<rect x="67.5098" y="56.4876" width="39.5416" height="4.03485" rx="2.01743" fill="#C4E7F6"/>
<rect x="84.4577" y="44.3823" width="13.7185" height="4.03485" rx="2.01743" fill="#C4E7F6"/>
<path d="M77.9998 43.2769C77.9998 40.7299 76.4529 39.5979 73.5137 38.8297C70.8453 38.1424 70.2265 37.6168 70.2265 36.4444C70.2265 35.2719 71.0773 34.625 72.5082 34.625C73.6297 34.6655 74.6739 35.0293 75.6021 35.6762C75.9501 35.9188 76.4529 35.8379 76.6849 35.4741C76.6849 35.4741 76.6849 35.4741 76.6849 35.4336L77.033 34.908C77.3037 34.4633 77.2263 33.8973 76.8009 33.6143C75.9114 33.0079 74.9446 32.5631 73.9004 32.4014L73.9004 30.4608C73.9004 30.1374 73.6684 29.8544 73.359 29.8544L71.8121 29.8544C71.5027 29.8544 71.232 30.1374 71.2707 30.4608L71.2707 32.4014C69.2597 32.7249 67.7514 34.5442 67.7901 36.6869C67.7901 39.517 69.453 40.4469 72.4309 41.2555C75.022 41.9023 75.5247 42.5088 75.5247 43.6004C75.5247 44.7324 74.5579 45.5005 73.0496 45.5005C71.6574 45.5005 70.3425 44.975 69.2597 44.0451C68.9116 43.7621 68.4089 43.8429 68.0995 44.2068L67.7127 44.692C67.4034 45.0963 67.442 45.7027 67.8674 46.0261C68.8729 46.8347 69.9945 47.3603 71.232 47.6433L71.232 49.4222C71.232 49.7456 71.464 50.0286 71.7734 50.0286L73.3203 50.0286C73.6297 50.0286 73.9004 49.7456 73.8618 49.4222L73.8618 47.805C76.1822 47.7646 78.0385 45.7431 77.9998 43.2769C77.9998 43.3174 77.9998 43.3174 77.9998 43.2769Z" fill="#C4E7F6"/>
<path d="M67.5098 70.5993C67.5098 69.4912 68.4081 68.5929 69.5162 68.5929L105.045 68.5929C106.153 68.5929 107.051 69.4912 107.051 70.5993L107.051 81.9189C107.051 83.027 106.153 83.9253 105.045 83.9253L69.5162 83.9253C68.4081 83.9253 67.5098 83.027 67.5098 81.9189L67.5098 70.5993Z" fill="#C4E7F6"/>
<path d="M42.722 57.8224L42.722 31.7326C42.722 29.6073 40.9631 27.8119 38.8379 27.8119L18.9407 27.8119C16.7056 27.8119 14.91 29.6074 14.91 31.8426L14.91 39.5376L21.176 39.5376L21.176 57.8224L42.722 57.8224ZM40.9629 56.1003L22.9348 56.1003L22.9714 31.8794C22.9714 31.0732 22.7148 30.3038 22.3118 29.6442L38.8744 29.6442C40.0469 29.6442 40.9629 30.597 40.9629 31.7329L40.9629 56.1003Z" fill="#26536B"/>
<rect x="25.1865" y="37.5741" width="13.1366" height="2.28462" fill="#C4E7F6"/>
<rect x="25.1865" y="42.7144" width="10.2808" height="2.28462" fill="#C4E7F6"/>
<rect x="25.1865" y="32.4338" width="13.1366" height="2.28462" fill="#C4E7F6"/>
<rect x="12.1248" y="68.1393" width="38.9368" height="4.1718" rx="2.0859" fill="#C4E7F6"/>
<rect x="12.1248" y="77.8735" width="23.6402" height="4.1718" rx="2.0859" fill="#C4E7F6"/>
</svg>
