
<svg width="120" height="96" viewBox="0 0 120 96" fill="none" xmlns="http://www.w3.org/2000/svg">
<rect y="-0.000152588" width="120" height="96" rx="5" fill="white"/>
<path d="M-4.71797e-08 5.00003C-2.11231e-08 2.23861 2.23858 3.05033e-05 5 3.04857e-05L116.022 2.97788e-05C118.219 2.97648e-05 120 1.78111 120 3.97818L120 16L-1.50975e-07 16L-4.71797e-08 5.00003Z" fill="#156B8A"/>
<rect x="11.0286" y="41.3575" width="39.979" height="4.13576" rx="2.06788" fill="#26536B"/>
<rect x="11.0286" y="51.0076" width="39.979" height="4.13576" rx="2.06788" fill="#C4E7F6"/>
<rect x="11.0286" y="79.9579" width="39.979" height="4.13576" rx="2.06788" fill="#C4E7F6"/>
<rect x="11.0286" y="24.8144" width="48.2506" height="11.0287" rx="1.98908" fill="#26536B"/>
<rect x="11.0286" y="63.4149" width="48.2506" height="11.0287" rx="1.98908" fill="#C4E7F6"/>
<rect x="77.5671" y="25.0891" width="30.8306" height="39.7814" rx="1.98908" fill="#C4E7F6"/>
<circle cx="8" cy="8.00003" r="2" fill="#26536B"/>
<circle cx="14" cy="8.00003" r="2" fill="#1FA7D9"/>
<circle cx="20" cy="8.00003" r="2" fill="#BFED45"/>
</svg>
