<svg xmlns="http://www.w3.org/2000/svg" width="120" height="96" viewBox="0 0 120 96" fill="none"><script xmlns="" id="argent-x-extension" data-extension-id="dlcobpjiigpikoobohmabehhmhfoodbb"/><script xmlns=""/>
<g clip-path="url(#clip0_246_6085)">
<rect y="0.000244141" width="120" height="96" rx="5" fill="white"/>
<g clip-path="url(#clip1_246_6085)">
<path d="M16.4541 52.7297C16.4541 56.3397 4.9541 56.3397 4.9541 52.7297C4.9541 49.2889 5.77572 45.4671 8.23957 45.4671C8.23957 45.4671 9.88214 46.1933 10.7034 46.1933C11.5247 46.1933 13.1673 45.4671 13.1673 45.4671C15.6328 45.4671 16.4541 49.1197 16.4541 52.7297Z" fill="#E2E8F0"/>
<path d="M10.6287 45.4676C12.4254 45.4676 13.8819 43.8379 13.8819 41.8277C13.8819 39.8174 12.4254 38.1877 10.6287 38.1877C8.83191 38.1877 7.37537 39.8174 7.37537 41.8277C7.37537 43.8379 8.83191 45.4676 10.6287 45.4676Z" fill="#CFD8E3"/>
</g>
<path d="M-4.71797e-08 5.00018C-2.11231e-08 2.23876 2.23858 0.000183091 5 0.000183074L115.987 0.000182367C118.203 0.000182353 120 1.79678 120 4.01299L120 16.0002L-1.50975e-07 16.0002L-4.71797e-08 5.00018Z" fill="#156B8A"/>
<circle cx="8" cy="8.00018" r="2" fill="#26536B"/>
<circle cx="14" cy="8.00018" r="2" fill="#1FA7D9"/>
<circle cx="20" cy="8.00018" r="2" fill="#BFED45"/>







<path d="M20.7666 33.8844C20.7666 32.2915 22.0579 31.0002 23.6508 31.0002L88.3199 31.0002C89.9128 31.0002 91.2041 32.2915 91.2041 33.8844L91.2041 51.116C91.2041 52.7089 89.9128 54.0002 88.3199 54.0002L20.7666 54.0002L20.7666 33.8844Z" fill="#C4E7F6"/>
<path d="M23.6416 62.6344C23.6416 61.0415 24.9329 59.7502 26.5258 59.7502L88.3199 59.7502C89.9128 59.7502 91.2041 61.0415 91.2041 62.6344L91.2041 77.0002L26.5258 77.0002C24.9329 77.0002 23.6416 75.7089 23.6416 74.116L23.6416 62.6344Z" fill="#C4E7F6"/>
<rect x="26.5166" y="35.3127" width="51.75" height="2.875" rx="1.4375" fill="white"/>
<rect x="26.5166" y="41.0627" width="37.375" height="2.875" rx="1.4375" fill="white"/>
<rect x="26.5166" y="46.8127" width="30.1875" height="2.875" rx="1.4375" fill="white"/>
<rect x="48.0791" y="64.0627" width="37.375" height="2.875" rx="1.4375" fill="white"/>
<rect x="55.2666" y="69.8127" width="30.1875" height="2.875" rx="1.4375" fill="white"/>
</g>
<defs>
<clipPath id="clip0_246_6085">
<rect y="0.000244141" width="120" height="96" rx="4.01883" fill="white"/>
</clipPath>
<clipPath id="clip1_246_6085">
<rect width="11.5" height="17.25" fill="white" transform="translate(4.9541 38.1877)"/>
</clipPath>
</defs>
<script xmlns=""/></svg>