<svg xmlns="http://www.w3.org/2000/svg" width="433" height="340" viewBox="0 0 433 340" fill="none"><script xmlns="" id="argent-x-extension" data-extension-id="dlcobpjiigpikoobohmabehhmhfoodbb"/><script xmlns=""/>
<path d="M272.785 105.967L270.76 106.98L257.317 113.793C257.041 113.978 256.673 114.07 256.397 114.254C251.885 116.003 246.637 113.978 244.427 109.65L244.151 109.098C241.757 104.402 243.691 98.6012 248.386 96.2072L260.908 89.8541L261.829 89.3937L263.854 88.3809C268.55 85.987 274.351 87.9206 276.745 92.6163L277.021 93.1688C279.415 97.7725 277.481 103.573 272.785 105.967Z" fill="#FBFDFE"/>
<path d="M273.43 83.039L271.405 83.9597L257.594 90.0366C257.226 90.2208 256.949 90.3128 256.581 90.4049C251.978 91.8781 246.914 89.5762 244.888 85.0646L244.612 84.5121C242.494 79.6322 244.704 73.9236 249.584 71.8059L262.474 66.1894L263.394 65.8211L265.42 64.9003C270.3 62.7826 276.008 64.9924 278.126 69.8723L278.402 70.4248C280.52 75.2127 278.31 80.9213 273.43 83.039Z" fill="#FBFDFE"/>
<path d="M273.154 123.46L263.21 128.8C260.172 130.457 256.397 129.26 254.739 126.222L253.635 124.196C251.977 121.158 253.174 117.383 256.213 115.725L266.156 110.385C269.195 108.728 273.522 110.845 275.179 113.792L275.824 114.897C277.297 118.027 276.192 121.802 273.154 123.46Z" fill="#FBFDFE"/>
<path d="M204.652 52.8379C199.864 54.0348 160.918 110.845 154.657 114.804C154.289 114.988 154.012 115.08 153.92 114.988C150.329 111.581 155.485 98.6908 153.736 81.3809C153.644 80.7364 159.537 65.8203 154.657 43.2622C153.736 38.8426 149.869 36.6328 147.659 36.6328C144.897 36.6328 142.687 37.8298 142.411 38.6584C141.767 40.4999 135.322 65.8203 133.02 70.7003C129.982 77.3296 126.115 110.476 118.196 126.866C112.856 137.822 111.291 202.182 111.199 205.313C111.107 205.313 111.015 205.221 111.015 205.221C111.015 205.221 49.5357 335.75 25.02 383.715C25.02 383.715 25.8748 406.179 83.5357 409.215C141.197 412.25 147.66 383.715 147.66 383.715C153.964 350.322 169.296 248.035 169.204 246.562C170.217 244.997 171.322 243.339 172.519 241.774C176.662 236.25 181.726 231.186 187.711 227.963C193.788 224.648 200.877 216.73 207.967 207.154C225.737 182.939 243.23 147.951 243.23 147.951C243.23 147.951 209.716 51.5488 204.652 52.8379Z" fill="#FBFDFE"/>
<path d="M285.123 46.8555L264.775 61.4032L244.796 75.6748C243.691 76.3193 242.586 76.3193 241.665 75.8589C238.627 74.3857 236.417 68.493 234.392 64.9021L234.208 64.5338C231.445 59.838 233.103 53.669 237.798 50.9068L266.433 34.2413L274.903 29.2693C279.599 26.5071 285.768 28.1644 288.53 32.8602L288.714 33.2285C291.476 38.0164 289.911 44.0933 285.123 46.8555Z" fill="#FBFDFE"/>
<path d="M207.874 207.159C200.785 216.827 193.695 224.654 187.618 227.968C181.634 231.191 176.662 236.163 172.426 241.779C167.639 239.57 162.206 236.9 156.866 234.321C150.329 231.191 150.145 221.891 156.498 218.485C156.59 218.485 156.59 218.393 156.682 218.393C162.667 214.986 168.744 202.924 168.744 202.924L207.874 207.159Z" fill="#C4E7F6"/>
<path d="M154.657 160.751C154.657 160.751 151.526 133.589 148.672 128.249C145.818 122.909 143.332 112.32 147.751 104.402C152.171 96.4835 153.736 81.2913 153.736 81.2913C155.485 98.6012 150.329 111.492 153.92 114.898C154.012 114.99 154.288 114.99 154.657 114.714V160.751Z" fill="#C4E7F6"/>
<path d="M246.361 8.82739H172.15C162.943 8.82739 155.393 16.7458 155.393 26.3215V212.956C155.393 222.624 162.943 230.45 172.15 230.45H246.361C255.568 230.45 263.118 222.532 263.118 212.956V26.3215C263.026 16.7458 255.568 8.82739 246.361 8.82739Z" fill="#156B8A"/>
<path d="M245.808 12.3284H172.611C164.969 12.3284 158.708 18.8656 158.708 26.8761V212.59C158.708 220.6 164.969 227.138 172.611 227.138H245.808C253.45 227.138 259.711 220.6 259.711 212.59V26.8761C259.711 18.7736 253.542 12.3284 245.808 12.3284ZM258.054 213.234C258.054 219.956 252.897 225.388 246.452 225.388H171.874C165.521 225.388 160.273 219.956 160.273 213.234V26.1395C160.273 19.4181 165.429 13.9857 171.874 13.9857H178.135C178.135 19.326 182.278 23.6535 187.342 23.6535H230.984C236.048 23.6535 240.192 19.326 240.192 13.9857H246.452C252.805 13.9857 258.054 19.4181 258.054 26.1395V213.234Z" fill="#156B8A"/>
<path d="M246.545 13.9836H240.284C240.284 19.3239 236.14 23.6514 231.076 23.6514H187.434C182.37 23.6514 178.227 19.3239 178.227 13.9836H171.966C165.613 13.9836 160.365 19.416 160.365 26.1374V213.232C160.365 219.954 165.521 225.386 171.966 225.386H246.545C252.898 225.386 258.146 219.954 258.146 213.232V26.1374C258.054 19.416 252.898 13.9836 246.545 13.9836Z" fill="#1FA7D9"/>
<rect x="171.572" y="162.714" width="63.1429" height="7.28571" rx="3.64286" fill="#FBFDFE"/>
<rect x="171.572" y="177.285" width="36.4286" height="7.28571" rx="3.64286" fill="#FBFDFE"/>
<rect x="171.572" y="106.858" width="74.0714" height="41.2857" rx="4.85714" fill="#156B8A"/>
<path d="M372.592 332.376C372.592 332.376 392.755 381.084 386.679 386.148C381.154 390.751 323.057 398.209 319.834 392.685C309.062 374.178 288.438 332.376 288.438 332.376C284.387 329.706 263.486 315.343 254.739 304.754C252.898 302.452 246.177 283.025 241.021 267.188C237.798 257.336 235.22 248.865 234.76 246.931C234.576 246.287 234.484 244.906 234.484 243.064C234.299 236.619 234.576 224.097 234.852 214.245V214.153C234.852 213.693 234.852 213.324 234.852 212.864V212.772C234.944 211.022 234.944 209.457 235.036 207.984C235.128 204.301 235.312 201.539 235.312 200.434V199.974C235.404 199.881 239.455 197.764 244.888 201.631C246.177 202.552 247.374 204.853 248.478 207.8C249.215 209.733 249.86 211.851 250.412 214.153C252.806 222.992 254.463 233.489 255.384 236.343C256.857 240.947 274.074 261.019 275.087 262.216C275.087 262.216 275.087 262.216 275.179 262.308V230.634L262.197 195.922L256.857 181.651L254.187 174.469C254.187 174.469 250.044 167.748 246.637 159.645C245.164 156.054 243.783 152.279 242.862 148.688C242.678 147.86 242.494 146.939 242.31 146.11C241.757 143.072 241.757 140.217 242.494 137.915C243.783 133.772 246.545 133.036 248.755 133.128C248.939 133.128 249.215 133.128 249.399 133.22C249.583 133.22 249.86 133.312 250.044 133.312C250.412 133.404 250.78 133.588 251.149 133.772C251.701 134.14 252.161 134.509 252.53 135.061C252.53 135.061 254.371 137.455 256.857 140.678C258.514 142.795 260.356 145.281 262.197 147.675C265.42 151.911 268.458 155.87 269.287 157.067C273.798 163.328 285.768 183.861 285.768 183.861L299.947 184.137C302.156 184.229 304.274 185.15 305.931 186.623C310.903 191.319 321.768 201.447 323.057 202.92C323.057 203.38 331.435 207.432 337.972 211.022C342.576 212.956 351.415 219.954 351.415 219.954C353.256 221.519 354.638 223.176 355.374 224.742C358.412 231.279 366.607 288.457 370.474 316.724C371.671 325.747 372.499 331.824 372.592 332.376Z" fill="#FBFDFE"/>
<path d="M285.859 183.494C285.859 183.494 298.933 204.763 300.591 205.776C302.34 206.697 309.061 208.078 309.798 205.776C310.626 203.474 285.859 183.494 285.859 183.494Z" fill="#C4E7F6"/>
<path d="M351.415 220.047C351.415 219.955 351.415 219.955 351.415 220.047C351.323 219.955 342.576 213.049 337.88 211.116C331.895 207.801 324.345 204.118 323.148 203.198C324.53 204.763 334.289 215.812 337.972 216.64C341.379 217.193 348.837 219.31 351.415 220.047Z" fill="#C4E7F6"/>
<path d="M275.271 262.122V230.448C275.271 230.448 282.821 243.063 283.373 249.968C283.926 256.874 280.243 268.015 275.271 262.122Z" fill="#C4E7F6"/>
<path d="M330.331 319.304L305.195 332.378H288.438C284.387 329.708 263.486 315.345 254.739 304.756C252.898 302.454 246.177 283.027 241.021 267.19C241.665 269.308 256.12 299.968 260.264 303.467C264.407 306.966 285.952 327.314 291.844 327.038C297.645 326.854 328.305 319.764 330.331 319.304C330.238 319.304 330.238 319.304 330.331 319.304Z" fill="#C4E7F6"/>
<path d="M209 97C225.569 97 239 83.5685 239 67C239 50.4315 225.569 37 209 37C192.431 37 179 50.4315 179 67C179 83.5685 192.431 97 209 97Z" fill="white"/>
<path d="M208.933 45L190 53.4575L190 68.2583C190 80.0037 198.067 88.8418 208.933 91.5165V45Z" fill="#F1F5F9"/>
<path opacity="0.2" d="M208.933 68.2584V91.5166C219.634 88.8418 227.579 80.0038 227.579 68.2583L208.933 68.2584Z" fill="#156B8A"/>
<path d="M208.933 45L208.933 68.2583H227.579V53.4575L208.933 45Z" fill="#E2E8F0"/>
<circle opacity="0.5" cx="208.811" cy="68.3648" r="14.2827" fill="#FBFDFE"/>






<script xmlns=""/></svg>