<svg t="1709021626633" class="icon" viewBox="0 0 1024 1024" version="1.1" xmlns="http://www.w3.org/2000/svg"
    p-id="18779" width="200" height="200">
    <path
        d="M505.782857 0l432.566857 185.490286v280.941714c0 64.365714-10.971429 127.049143-32.841143 187.684571a596.48 596.48 0 0 1-227.401142 294.326858A521.142857 521.142857 0 0 1 505.782857 1024a520.996571 520.996571 0 0 1-172.397714-75.556571 596.48 596.48 0 0 1-227.474286-294.326858A549.595429 549.595429 0 0 1 73.142857 466.432V185.490286L505.782857 0z m0 510.902857V101.083429l-336.969143 145.554285v264.265143h336.896v415.378286a394.020571 394.020571 0 0 0 124.562286-59.465143c37.814857-27.062857 71.533714-59.392 100.132571-96.036571a522.24 522.24 0 0 0 112.274286-259.876572H505.782857z"
        fill="#57bda9" p-id="18780"></path>
</svg>