
<svg width="28" height="28" viewBox="0 0 28 28" fill="none" xmlns="http://www.w3.org/2000/svg">
<circle cx="14" cy="14" r="14" fill="#26536B"/>
<path d="M12.2911 13.344V15.104H13.3951C14.7231 15.104 15.4751 15.648 15.4751 16.672V16.784C15.4751 17.824 14.7871 18.464 13.5551 18.464C12.3071 18.464 11.6351 17.824 11.1391 16.928L9.58713 18.112C10.2911 19.2 11.3791 20.192 13.5551 20.192C16.0191 20.192 17.6671 18.88 17.6671 16.912C17.6671 15.328 16.6271 14.432 15.3311 14.192V14.096C16.4991 13.856 17.4751 12.992 17.4751 11.552C17.4751 9.76 15.9391 8.64 13.6831 8.64C11.7951 8.64 10.7391 9.456 9.98713 10.496L11.3311 11.712C11.8751 10.864 12.6431 10.368 13.6191 10.368C14.6271 10.368 15.2671 10.928 15.2671 11.84V11.952C15.2671 12.752 14.6751 13.344 13.3951 13.344H12.2911Z" fill="#BFED45"/>
</svg>
