
<svg width="64" height="64" viewBox="0 0 64 64" fill="none" xmlns="http://www.w3.org/2000/svg">
<rect x="4" y="4" width="56" height="56" rx="8" fill="url(#paint0_linear_198_4087)" stroke="#E4F8FF" stroke-width="8"/>
<path fill-rule="evenodd" clip-rule="evenodd" d="M37.8 23.04C37.8 23.3935 37.5135 23.68 37.16 23.68H27.56C27.2065 23.68 26.92 23.3935 26.92 23.04V21.76C26.92 21.4065 27.2065 21.12 27.56 21.12H37.16C37.5135 21.12 37.8 21.4065 37.8 21.76V23.04ZM37.8 28.16C37.8 28.5135 37.5135 28.8 37.16 28.8H27.56C27.2065 28.8 26.92 28.5135 26.92 28.16V26.88C26.92 26.5265 27.2065 26.24 27.56 26.24H37.16C37.5135 26.24 37.8 26.5265 37.8 26.88V28.16ZM25.32 23.04C25.32 23.3935 25.0335 23.68 24.68 23.68H23.08C22.7265 23.68 22.44 23.3935 22.44 23.04V21.76C22.44 21.4065 22.7265 21.12 23.08 21.12H24.68C25.0335 21.12 25.32 21.4065 25.32 21.76V23.04ZM25.32 28.16C25.32 28.5135 25.0335 28.8 24.68 28.8H23.08C22.7265 28.8 22.44 28.5135 22.44 28.16V26.88C22.44 26.5265 22.7265 26.24 23.08 26.24H24.68C25.0335 26.24 25.32 26.5265 25.32 26.88V28.16ZM19.56 19.2C19.56 18.8465 19.8465 18.56 20.2 18.56H41.96C42.3135 18.56 42.6 18.8465 42.6 19.2V31.5316C41.3239 30.8111 39.8499 30.4 38.28 30.4C33.4199 30.4 29.48 34.3399 29.48 39.2C29.48 40.77 29.8911 42.2439 30.6115 43.52H20.2C19.8465 43.52 19.56 43.2335 19.56 42.88V19.2ZM32.7926 46.08H18.28C17.5731 46.08 17 45.5069 17 44.8V17.28C17 16.5731 17.5731 16 18.28 16H43.88C44.5869 16 45.16 16.5731 45.16 17.28V33.7126C46.3616 35.2172 47.08 37.1247 47.08 39.2C47.08 44.0601 43.1401 48 38.28 48C36.2047 48 34.2972 47.2816 32.7926 46.08ZM32.7831 40.3813C32.6582 40.2563 32.6582 40.0537 32.7831 39.9287L34.1408 38.5711C34.2658 38.4461 34.4684 38.4461 34.5933 38.5711L36.4035 40.3813C36.5285 40.5062 36.7311 40.5062 36.8561 40.3813L42.2867 34.9507C42.4116 34.8257 42.6142 34.8257 42.7392 34.9507L44.0969 36.3084C44.2218 36.4333 44.2218 36.6359 44.0969 36.7609L36.8561 44.0017C36.7311 44.1266 36.5285 44.1266 36.4035 44.0017L32.7831 40.3813Z" fill="white"/>
<defs>
<linearGradient id="paint0_linear_198_4087" x1="56" y1="10.5846" x2="-20.2534" y2="19.7949" gradientUnits="userSpaceOnUse">
<stop stop-color="#1FA7D9"/>
<stop offset="1" stop-color="#B2F000"/>
</linearGradient>
</defs>
</svg>
