
<svg width="64" height="64" viewBox="0 0 64 64" fill="none" xmlns="http://www.w3.org/2000/svg">
<rect x="4" y="4" width="56" height="56" rx="8" fill="url(#paint0_linear_198_4070)" stroke="#E4F8FF" stroke-width="8"/>
<path fill-rule="evenodd" clip-rule="evenodd" d="M37.16 23.68C37.5135 23.68 37.8 23.3935 37.8 23.04V21.76C37.8 21.4065 37.5135 21.12 37.16 21.12H27.56C27.2065 21.12 26.92 21.4065 26.92 21.76V23.04C26.92 23.3935 27.2065 23.68 27.56 23.68H37.16ZM37.16 28.8C37.5135 28.8 37.8 28.5135 37.8 28.16V26.88C37.8 26.5265 37.5135 26.24 37.16 26.24H27.56C27.2065 26.24 26.92 26.5265 26.92 26.88V28.16C26.92 28.5135 27.2065 28.8 27.56 28.8H37.16ZM24.68 23.68C25.0335 23.68 25.32 23.3935 25.32 23.04V21.76C25.32 21.4065 25.0335 21.12 24.68 21.12H23.08C22.7265 21.12 22.44 21.4065 22.44 21.76V23.04C22.44 23.3935 22.7265 23.68 23.08 23.68H24.68ZM24.68 28.8C25.0335 28.8 25.32 28.5135 25.32 28.16V26.88C25.32 26.5265 25.0335 26.24 24.68 26.24H23.08C22.7265 26.24 22.44 26.5265 22.44 26.88V28.16C22.44 28.5135 22.7265 28.8 23.08 28.8H24.68ZM20.2 18.56C19.8465 18.56 19.56 18.8465 19.56 19.2V42.88C19.56 43.2335 19.8465 43.52 20.2 43.52H30.6115C29.8911 42.2439 29.48 40.77 29.48 39.2C29.48 34.3399 33.4199 30.4 38.28 30.4C39.8499 30.4 41.3239 30.8111 42.6 31.5316V19.2C42.6 18.8465 42.3135 18.56 41.96 18.56H20.2ZM18.28 46.08H32.7926C34.2972 47.2816 36.2047 48 38.28 48C43.1401 48 47.08 44.0601 47.08 39.2C47.08 37.1247 46.3616 35.2172 45.16 33.7126V17.28C45.16 16.5731 44.5869 16 43.88 16H18.28C17.5731 16 17 16.5731 17 17.28V44.8C17 45.5069 17.5731 46.08 18.28 46.08ZM39.5 34.6864C39.8408 34.7261 40.1538 34.7798 40.4149 34.8321C40.6699 34.8831 40.883 34.9342 41.0343 34.9731C41.11 34.9926 41.1706 35.0091 41.2135 35.0211L41.2645 35.0357L41.2796 35.0401L41.2844 35.0415L41.2861 35.042L41.2868 35.0422C41.2868 35.0422 41.2874 35.0424 41 36.0002C40.7126 36.958 40.713 36.9581 40.713 36.9581L40.7068 36.9563L40.6742 36.947C40.6439 36.9385 40.597 36.9257 40.5361 36.9101C40.4138 36.8786 40.2364 36.836 40.0226 36.7932C39.5883 36.7063 39.0342 36.6251 38.4999 36.625C37.9423 36.625 37.5341 36.7144 37.2957 36.8574C37.1388 36.9516 37 37.0887 37 37.4999C37 37.7485 37.046 37.882 37.0823 37.9525C37.1168 38.0195 37.1684 38.0801 37.2632 38.1442C37.5067 38.3088 37.869 38.4053 38.4926 38.5613L38.5217 38.5685C39.0461 38.6996 39.7974 38.8873 40.397 39.3371C41.0995 39.8641 41.5 40.6613 41.5 41.7506C41.5 42.8662 41.041 43.7103 40.2172 44.184C39.9887 44.3154 39.7464 44.4096 39.5 44.4754V45.5H37.5V44.5469C36.9339 44.4714 36.4045 44.3398 36.0012 44.2221C35.7459 44.1477 35.5326 44.0762 35.3814 44.0228C35.3057 43.996 35.2451 43.9735 35.2022 43.9573C35.1807 43.9492 35.1637 43.9426 35.1513 43.9378L35.1363 43.9319L35.1315 43.93L35.1298 43.9293L35.1291 43.929C35.1291 43.929 35.1285 43.9288 35.5 43.0004C35.8715 42.0719 35.871 42.0718 35.871 42.0718L35.8774 42.0742L35.9101 42.0868C35.9404 42.0983 35.9873 42.1156 36.0483 42.1372C36.1705 42.1805 36.3479 42.2399 36.5613 42.3022C36.9958 42.429 37.5466 42.5575 38.0749 42.5972C38.6305 42.6389 39.0118 42.5701 39.2203 42.4502C39.334 42.3848 39.5 42.2601 39.5 41.7506C39.5 41.2147 39.338 41.0429 39.1968 40.937C38.9638 40.7622 38.6069 40.6514 38.0074 40.5015L37.8988 40.4745C37.4003 40.3513 36.7014 40.1786 36.1431 39.8011C35.816 39.58 35.516 39.2792 35.3044 38.8687C35.0947 38.4616 35 38.0013 35 37.4999C35 36.4111 35.4862 35.6107 36.2668 35.1424C36.6509 34.9119 37.0782 34.7785 37.5 34.7051V33.5H39.5V34.6864Z" fill="white"/>
<defs>
<linearGradient id="paint0_linear_198_4070" x1="56" y1="10.5846" x2="-20.2534" y2="19.7949" gradientUnits="userSpaceOnUse">
<stop stop-color="#1FA7D9"/>
<stop offset="1" stop-color="#B2F000"/>
</linearGradient>
</defs>
</svg>
