
<svg width="64" height="64" viewBox="0 0 64 64" fill="none" xmlns="http://www.w3.org/2000/svg">
<rect x="4" y="4" width="56" height="56" rx="8" fill="url(#paint0_linear_198_5265)" stroke="#E4F8FF" stroke-width="8"/>
<path fill-rule="evenodd" clip-rule="evenodd" d="M49.3334 25.339C49.3334 23.8633 48.0792 22.667 46.532 22.667H30.7742C29.3046 22.667 28.0993 23.7463 27.9822 25.1192H33.2259C36.05 25.1192 38.3393 27.3028 38.3393 29.9963V34.4953H42.5435C42.6505 34.4953 42.7516 34.5419 42.818 34.622L45.5233 37.8822C45.7293 38.1305 46.1481 37.9916 46.1481 37.675V34.8293C46.1481 34.6448 46.3048 34.4953 46.4982 34.4953H46.532C48.0792 34.4953 49.3334 33.299 49.3334 31.8233V25.339ZM14.6667 29.9963C14.6667 28.5206 15.921 27.3244 17.4681 27.3244H33.2259C34.7731 27.3244 36.0273 28.5206 36.0273 29.9963V36.4807C36.0273 37.9564 34.7731 39.1526 33.2259 39.1526H21.4567C21.3497 39.1526 21.2485 39.1993 21.1821 39.2794L18.4769 42.5396C18.2709 42.7879 17.8521 42.6489 17.8521 42.3323V39.4866C17.8521 39.3022 17.6953 39.1526 17.5019 39.1526H17.4681C15.921 39.1526 14.6667 37.9564 14.6667 36.4807V29.9963ZM21.3199 33.3124C21.3199 34.0473 20.6928 34.6431 19.9192 34.6431C19.1456 34.6431 18.5185 34.0473 18.5185 33.3124C18.5185 32.5775 19.1456 31.9817 19.9192 31.9817C20.6928 31.9817 21.3199 32.5775 21.3199 33.3124ZM25.5222 34.6431C26.2958 34.6431 26.9229 34.0473 26.9229 33.3124C26.9229 32.5775 26.2958 31.9817 25.5222 31.9817C24.7486 31.9817 24.1215 32.5775 24.1215 33.3124C24.1215 34.0473 24.7486 34.6431 25.5222 34.6431ZM32.5251 33.3124C32.5251 34.0473 31.898 34.6431 31.1244 34.6431C30.3508 34.6431 29.7237 34.0473 29.7237 33.3124C29.7237 32.5775 30.3508 31.9817 31.1244 31.9817C31.898 31.9817 32.5251 32.5775 32.5251 33.3124Z" fill="white"/>
<defs>
<linearGradient id="paint0_linear_198_5265" x1="56" y1="10.5846" x2="-20.2534" y2="19.7949" gradientUnits="userSpaceOnUse">
<stop stop-color="#1FA7D9"/>
<stop offset="1" stop-color="#B2F000"/>
</linearGradient>
</defs>
</svg>
