<svg xmlns="http://www.w3.org/2000/svg" width="798" height="248" viewBox="0 0 798 248" fill="none">
<path d="M399 128L399 160.5C399 171.546 407.954 180.5 419 180.5L774 180.5C785.046 180.5 794 189.454 794 200.5L794 248" stroke="#E2E8F0" stroke-width="7"/>
<line x1="399" y1="128" x2="399" y2="248" stroke="#E2E8F0" stroke-width="7"/>
<path d="M399 128L399 160.5C399 171.546 390.046 180.5 379 180.5L24 180.5C12.9543 180.5 4.00002 189.454 4.00002 200.5L3.99999 248" stroke="#F1F5F9" stroke-width="7"/>
<path d="M399 120C429.928 120 455 94.9279 455 64C455 33.0721 429.928 8 399 8C368.072 8 343 33.0721 343 64C343 94.9279 368.072 120 399 120Z" fill="#26536B" stroke="#E4F8FF" stroke-width="16"/>
<path d="M399.176 30.1475L371.716 42.4143L371.716 63.8814C371.716 80.9171 383.417 93.7359 399.176 97.6154V30.1475Z" fill="#F1F5F9"/>
<path d="M399.177 63.8815V97.6153C414.697 93.7359 426.221 80.9171 426.221 63.8813L399.177 63.8815Z" fill="#CFD8E3"/>
<path d="M399.177 30.1475L399.177 63.8814H426.221V42.4143L399.177 30.1475Z" fill="#E2E8F0"/>
<circle opacity="0.5" cx="399" cy="64.0361" r="20.7158" fill="#FBFDFE"/>
</svg>