<svg width="32" height="32" viewBox="0 0 32 32" fill="none" xmlns="http://www.w3.org/2000/svg">
<g clip-path="url(#clip0_485_1174)">
<path fill-rule="evenodd" clip-rule="evenodd" d="M16 0C24.8366 0 32 7.16344 32 16C32 24.8366 24.8366 32 16 32C7.16344 32 0 24.8366 0 16C0 7.16344 7.16344 0 16 0ZM18.27 10.3702L18.0538 10.5866C18.0538 10.5866 20.0526 11.1869 21.2634 12.195L21.386 12.302L21.3572 12.2828C21.0129 12.0557 18.9788 10.9886 16.2905 10.9152L16 10.9113C12.8652 10.9113 10.5953 12.3179 10.5953 12.3179C11.7843 11.2359 13.9462 10.5866 13.9462 10.5866L13.73 10.3702C11.9233 10.3702 10.2098 11.5831 9.97418 11.7564L9.94669 11.7769C8.16672 15.4343 8.01059 18.6853 8.0006 19.4872L8.00098 19.676C9.42586 21.4828 11.5186 21.6182 12.005 21.6245L12.1018 21.624L12.1086 21.6238L12.9733 20.5417C11.8236 20.2761 10.9633 19.3586 10.6885 19.0337L10.619 18.9491C10.6033 18.9293 10.5953 18.9186 10.5953 18.9186C10.5953 18.9186 12.7572 20.4335 16 20.4335C18.9448 20.4335 21.1264 19.0967 21.38 18.9346L21.4047 18.9186C21.4047 18.9186 20.54 20.2171 19.0267 20.5417L19.8914 21.6238C19.8914 21.6238 22.3776 21.8402 23.999 19.676L23.9994 19.4872C23.9894 18.6853 23.8333 15.4343 22.0533 11.7769C22.0533 11.7769 20.3238 10.3702 18.27 10.3702ZM13.4444 15.1702C14.2222 15.1702 14.8889 15.8375 14.8889 16.7274C14.8889 17.6172 14.2222 18.2845 13.4444 18.2845C12.6667 18.2845 12 17.6172 12 16.7274C12 15.8375 12.6667 15.1702 13.4444 15.1702ZM18.5556 15.1702C19.3333 15.1702 19.8889 15.8375 20 16.7274C20 17.6172 19.3333 18.2845 18.5556 18.2845C17.7778 18.2845 17.1111 17.6172 17.1111 16.7274C17.1111 15.8375 17.7778 15.1702 18.5556 15.1702Z" fill="#CCCCCC"/>
</g>
<defs>
<clipPath id="clip0_485_1174">
<rect width="32" height="32" fill="white"/>
</clipPath>
</defs>
</svg>
