<svg width="40" height="40" viewBox="0 0 40 40" fill="none" xmlns="http://www.w3.org/2000/svg">
<circle cx="20" cy="20" r="19.75" fill="#0045FF" stroke="#F7F7F7" stroke-width="0.5"/>
<path d="M27.15 29.725H12.85C11.975 29.725 11.25 29.05 11.25 28.225V26.1C11.25 23.7 13.4 21.775 16.025 21.775H23.975C26.6 21.775 28.75 23.725 28.75 26.1V28.225C28.75 29.05 28.025 29.725 27.15 29.725ZM20 20.225C17.25 20.225 15.025 18 15.025 15.25C15.025 12.5 17.25 10.275 20 10.275C22.75 10.275 24.975 12.5 24.975 15.25C24.975 18 22.725 20.2 20 20.225Z" fill="white"/>
</svg>
