<svg width="32" height="32" viewBox="0 0 32 32" fill="none" xmlns="http://www.w3.org/2000/svg">
<path fill-rule="evenodd" clip-rule="evenodd" d="M16 0C24.8366 0 32 7.16344 32 16C32 24.8366 24.8366 32 16 32C7.16344 32 0 24.8366 0 16C0 7.16344 7.16344 0 16 0ZM23.9547 10.4408C24.1683 9.43014 23.5927 9.02707 22.934 9.2677L8.74518 14.8143C7.77196 15.1993 7.78977 15.7467 8.57903 15.9994L12.2108 17.1484L20.6375 11.7703C21.0291 11.5056 21.3911 11.656 21.0944 11.9207L14.2759 18.1651L14.0148 21.9611C14.3946 21.9611 14.5608 21.7926 14.7566 21.5941L16.5309 19.8615L20.2102 22.6108C20.8807 22.9958 21.3614 22.7973 21.5395 21.9791L23.9547 10.4408Z" fill="#0045FF"/>
</svg>
